<svg xmlns="http://www.w3.org/2000/svg" version="1.1" width="349.8" height="353.1" viewBox="0 0 349.8 353.1"><defs><clipPath id="clip-1"><rect x="0" y="23.100000000000016" width="330" height="330"/></clipPath></defs><path fill="none" stroke="#000000" d="M 0,353.1 L 0,23.1" style="stroke-width: 2px;opacity: 0.1" stroke-width="2" opacity="0.1"/><path fill="none" stroke="#000000" d="M 22,353.1 L 22,23.1" style="stroke-width: 2px;opacity: 0.1" stroke-width="2" opacity="0.1"/><path fill="none" stroke="#000000" d="M 44,353.1 L 44,23.1" style="stroke-width: 2px;opacity: 0.1" stroke-width="2" opacity="0.1"/><path fill="none" stroke="#000000" d="M 66,353.1 L 66,23.1" style="stroke-width: 2px;opacity: 0.1" stroke-width="2" opacity="0.1"/><path fill="none" stroke="#000000" d="M 88,353.1 L 88,23.1" style="stroke-width: 2px;opacity: 0.1" stroke-width="2" opacity="0.1"/><path fill="none" stroke="#000000" d="M 110,353.1 L 110,23.1" style="stroke-width: 2px;opacity: 0.1" stroke-width="2" opacity="0.1"/><path fill="none" stroke="#000000" d="M 132,353.1 L 132,23.1" style="stroke-width: 2px;opacity: 0.1" stroke-width="2" opacity="0.1"/><path fill="none" stroke="#000000" d="M 154,353.1 L 154,23.1" style="stroke-width: 2px;opacity: 0.1" stroke-width="2" opacity="0.1"/><path fill="none" stroke="#000000" d="M 176,353.1 L 176,23.1" style="stroke-width: 2px;opacity: 0.1" stroke-width="2" opacity="0.1"/><path fill="none" stroke="#000000" d="M 198,353.1 L 198,23.1" style="stroke-width: 2px;opacity: 0.1" stroke-width="2" opacity="0.1"/><path fill="none" stroke="#000000" d="M 220,353.1 L 220,23.1" style="stroke-width: 2px;opacity: 0.1" stroke-width="2" opacity="0.1"/><path fill="none" stroke="#000000" d="M 242,353.1 L 242,23.1" style="stroke-width: 2px;opacity: 0.1" stroke-width="2" opacity="0.1"/><path fill="none" stroke="#000000" d="M 264,353.1 L 264,23.1" style="stroke-width: 2px;opacity: 0.1" stroke-width="2" opacity="0.1"/><path fill="none" stroke="#000000" d="M 286,353.1 L 286,23.1" style="stroke-width: 2px;opacity: 0.1" stroke-width="2" opacity="0.1"/><path fill="none" stroke="#000000" d="M 308,353.1 L 308,23.1" style="stroke-width: 2px;opacity: 0.1" stroke-width="2" opacity="0.1"/><path fill="none" stroke="#000000" d="M 330,353.1 L 330,23.1" style="stroke-width: 2px;opacity: 0.1" stroke-width="2" opacity="0.1"/><path fill="none" stroke="#000000" d="M 0,353.1 L 330,353.1" style="stroke-width: 2px;opacity: 0.1" stroke-width="2" opacity="0.1"/><path fill="none" stroke="#000000" d="M 0,331.1 L 330,331.1" style="stroke-width: 2px;opacity: 0.1" stroke-width="2" opacity="0.1"/><path fill="none" stroke="#000000" d="M 0,309.1 L 330,309.1" style="stroke-width: 2px;opacity: 0.1" stroke-width="2" opacity="0.1"/><path fill="none" stroke="#000000" d="M 0,287.1 L 330,287.1" style="stroke-width: 2px;opacity: 0.1" stroke-width="2" opacity="0.1"/><path fill="none" stroke="#000000" d="M 0,265.1 L 330,265.1" style="stroke-width: 2px;opacity: 0.1" stroke-width="2" opacity="0.1"/><path fill="none" stroke="#000000" d="M 0,243.1 L 330,243.1" style="stroke-width: 2px;opacity: 0.1" stroke-width="2" opacity="0.1"/><path fill="none" stroke="#000000" d="M 0,221.1 L 330,221.1" style="stroke-width: 2px;opacity: 0.1" stroke-width="2" opacity="0.1"/><path fill="none" stroke="#000000" d="M 0,199.1 L 330,199.1" style="stroke-width: 2px;opacity: 0.1" stroke-width="2" opacity="0.1"/><path fill="none" stroke="#000000" d="M 0,177.1 L 330,177.1" style="stroke-width: 2px;opacity: 0.1" stroke-width="2" opacity="0.1"/><path fill="none" stroke="#000000" d="M 0,155.1 L 330,155.1" style="stroke-width: 2px;opacity: 0.1" stroke-width="2" opacity="0.1"/><path fill="none" stroke="#000000" d="M 0,133.1 L 330,133.1" style="stroke-width: 2px;opacity: 0.1" stroke-width="2" opacity="0.1"/><path fill="none" stroke="#000000" d="M 0,111.1 L 330,111.1" style="stroke-width: 2px;opacity: 0.1" stroke-width="2" opacity="0.1"/><path fill="none" stroke="#000000" d="M 0,89.1 L 330,89.1" style="stroke-width: 2px;opacity: 0.1" stroke-width="2" opacity="0.1"/><path fill="none" stroke="#000000" d="M 0,67.1 L 330,67.1" style="stroke-width: 2px;opacity: 0.1" stroke-width="2" opacity="0.1"/><path fill="none" stroke="#000000" d="M 0,45.1 L 330,45.1" style="stroke-width: 2px;opacity: 0.1" stroke-width="2" opacity="0.1"/><path fill="none" stroke="#000000" d="M 0,23.1 L 330,23.1" style="stroke-width: 2px;opacity: 0.1" stroke-width="2" opacity="0.1"/><path fill="none" stroke="#000000" d="M -3.45,248.7 C -3.1,246.6 0.75,243.45 1.8,243.1 C 0.75,242.75 -3.1,239.6 -3.45,237.5" transform="rotate(180 1.7999999999999972 243.10000000000002)" style="stroke-width: 2px;opacity: 1;stroke-linejoin: round;stroke-linecap: round" stroke-width="2" opacity="1" stroke-linejoin="round" stroke-linecap="round"/><path fill="none" stroke="#000000" d="M 110,243.1 S 110,243.1 1.05,243.1" style="stroke-width: 2px;opacity: 1" stroke-width="2" opacity="1"/><path fill="none" stroke="#000000" d="M 324.45,248.7 C 324.8,246.6 328.65,243.45 329.7,243.1 C 328.65,242.75 324.8,239.6 324.45,237.5" transform="" style="stroke-width: 2px;opacity: 1;stroke-linejoin: round;stroke-linecap: round" stroke-width="2" opacity="1" stroke-linejoin="round" stroke-linecap="round"/><path fill="none" stroke="#000000" d="M 110,243.1 S 110,243.1 328.95,243.1" style="stroke-width: 2px;opacity: 1" stroke-width="2" opacity="1"/><path fill="none" stroke="#000000" d="M 105.5,357.65 C 105.85,355.55 109.7,352.4 110.75,352.05 C 109.7,351.7 105.85,348.55 105.5,346.45" transform="rotate(90 110.75 352.05)" style="stroke-width: 2px;opacity: 1;stroke-linejoin: round;stroke-linecap: round" stroke-width="2" opacity="1" stroke-linejoin="round" stroke-linecap="round"/><path fill="none" stroke="#000000" d="M 110,243.1 S 110,243.1 110,352.05" style="stroke-width: 2px;opacity: 1" stroke-width="2" opacity="1"/><path fill="none" stroke="#000000" d="M 105.5,29.75 C 105.85,27.65 109.7,24.5 110.75,24.15 C 109.7,23.8 105.85,20.65 105.5,18.55" transform="rotate(-90 110.75 24.150000000000034)" style="stroke-width: 2px;opacity: 1;stroke-linejoin: round;stroke-linecap: round" stroke-width="2" opacity="1" stroke-linejoin="round" stroke-linecap="round"/><path fill="none" stroke="#000000" d="M 110,243.1 S 110,243.1 110,24.15" style="stroke-width: 2px;opacity: 1" stroke-width="2" opacity="1"/><path fill="none" stroke="#000000" d="M 132,248.1 L 132,238.1" style="stroke-width: 1px;opacity: 1" stroke-width="1" opacity="1"/><path fill="none" stroke="#000000" d="M 154,248.1 L 154,238.1" style="stroke-width: 1px;opacity: 1" stroke-width="1" opacity="1"/><path fill="none" stroke="#000000" d="M 176,248.1 L 176,238.1" style="stroke-width: 1px;opacity: 1" stroke-width="1" opacity="1"/><path fill="none" stroke="#000000" d="M 198,248.1 L 198,238.1" style="stroke-width: 1px;opacity: 1" stroke-width="1" opacity="1"/><path fill="none" stroke="#000000" d="M 220,248.1 L 220,238.1" style="stroke-width: 1px;opacity: 1" stroke-width="1" opacity="1"/><path fill="none" stroke="#000000" d="M 242,248.1 L 242,238.1" style="stroke-width: 1px;opacity: 1" stroke-width="1" opacity="1"/><path fill="none" stroke="#000000" d="M 264,248.1 L 264,238.1" style="stroke-width: 1px;opacity: 1" stroke-width="1" opacity="1"/><path fill="none" stroke="#000000" d="M 286,248.1 L 286,238.1" style="stroke-width: 1px;opacity: 1" stroke-width="1" opacity="1"/><path fill="none" stroke="#000000" d="M 308,248.1 L 308,238.1" style="stroke-width: 1px;opacity: 1" stroke-width="1" opacity="1"/><path fill="none" stroke="#000000" d="M 88,248.1 L 88,238.1" style="stroke-width: 1px;opacity: 1" stroke-width="1" opacity="1"/><path fill="none" stroke="#000000" d="M 66,248.1 L 66,238.1" style="stroke-width: 1px;opacity: 1" stroke-width="1" opacity="1"/><path fill="none" stroke="#000000" d="M 44,248.1 L 44,238.1" style="stroke-width: 1px;opacity: 1" stroke-width="1" opacity="1"/><path fill="none" stroke="#000000" d="M 22,248.1 L 22,238.1" style="stroke-width: 1px;opacity: 1" stroke-width="1" opacity="1"/><path fill="none" stroke="#000000" d="M 105,221.1 L 115,221.1" style="stroke-width: 1px;opacity: 1" stroke-width="1" opacity="1"/><path fill="none" stroke="#000000" d="M 105,199.1 L 115,199.1" style="stroke-width: 1px;opacity: 1" stroke-width="1" opacity="1"/><path fill="none" stroke="#000000" d="M 105,177.1 L 115,177.1" style="stroke-width: 1px;opacity: 1" stroke-width="1" opacity="1"/><path fill="none" stroke="#000000" d="M 105,155.1 L 115,155.1" style="stroke-width: 1px;opacity: 1" stroke-width="1" opacity="1"/><path fill="none" stroke="#000000" d="M 105,133.1 L 115,133.1" style="stroke-width: 1px;opacity: 1" stroke-width="1" opacity="1"/><path fill="none" stroke="#000000" d="M 105,111.1 L 115,111.1" style="stroke-width: 1px;opacity: 1" stroke-width="1" opacity="1"/><path fill="none" stroke="#000000" d="M 105,89.1 L 115,89.1" style="stroke-width: 1px;opacity: 1" stroke-width="1" opacity="1"/><path fill="none" stroke="#000000" d="M 105,67.1 L 115,67.1" style="stroke-width: 1px;opacity: 1" stroke-width="1" opacity="1"/><path fill="none" stroke="#000000" d="M 105,45.1 L 115,45.1" style="stroke-width: 1px;opacity: 1" stroke-width="1" opacity="1"/><path fill="none" stroke="#000000" d="M 105,265.1 L 115,265.1" style="stroke-width: 1px;opacity: 1" stroke-width="1" opacity="1"/><path fill="none" stroke="#000000" d="M 105,287.1 L 115,287.1" style="stroke-width: 1px;opacity: 1" stroke-width="1" opacity="1"/><path fill="none" stroke="#000000" d="M 105,309.1 L 115,309.1" style="stroke-width: 1px;opacity: 1" stroke-width="1" opacity="1"/><path fill="none" stroke="#000000" d="M 105,331.1 L 115,331.1" style="stroke-width: 1px;opacity: 1" stroke-width="1" opacity="1"/><path fill="none" stroke="#7854ab" d="M 0,50.6 L 0.5,50.975 L 1,51.35 L 1.5,51.725 L 2,52.1 L 2.5,52.475 L 3,52.85 L 3.5,53.225 L 4,53.6 L 4.5,53.975 L 5,54.35 L 5.5,54.725 L 6,55.1 L 6.5,55.475 L 7,55.85 L 7.5,56.225 L 8,56.6 L 8.5,56.975 L 9,57.35 L 9.5,57.725 L 10,58.1 L 10.5,58.475 L 11,58.85 L 11.5,59.225 L 12,59.6 L 12.5,59.975 L 13,60.35 L 13.5,60.725 L 14,61.1 L 14.5,61.475 L 15,61.85 L 15.5,62.225 L 16,62.6 L 16.5,62.975 L 17,63.35 L 17.5,63.725 L 18,64.1 L 18.5,64.475 L 19,64.85 L 19.5,65.225 L 20,65.6 L 20.5,65.975 L 21,66.35 L 21.5,66.725 L 22,67.1 L 22.5,67.475 L 23,67.85 L 23.5,68.225 L 24,68.6 L 24.5,68.975 L 25,69.35 L 25.5,69.725 L 26,70.1 L 26.5,70.475 L 27,70.85 L 27.5,71.225 L 28,71.6 L 28.5,71.975 L 29,72.35 L 29.5,72.725 L 30,73.1 L 30.5,73.475 L 31,73.85 L 31.5,74.225 L 32,74.6 L 32.5,74.975 L 33,75.35 L 33.5,75.725 L 34,76.1 L 34.5,76.475 L 35,76.85 L 35.5,77.225 L 36,77.6 L 36.5,77.975 L 37,78.35 L 37.5,78.725 L 38,79.1 L 38.5,79.475 L 39,79.85 L 39.5,80.225 L 40,80.6 L 40.5,80.975 L 41,81.35 L 41.5,81.725 L 42,82.1 L 42.5,82.475 L 43,82.85 L 43.5,83.225 L 44,83.6 L 44.5,83.975 L 45,84.35 L 45.5,84.725 L 46,85.1 L 46.5,85.475 L 47,85.85 L 47.5,86.225 L 48,86.6 L 48.5,86.975 L 49,87.35 L 49.5,87.725 L 50,88.1 L 50.5,88.475 L 51,88.85 L 51.5,89.225 L 52,89.6 L 52.5,89.975 L 53,90.35 L 53.5,90.725 L 54,91.1 L 54.5,91.475 L 55,91.85 L 55.5,92.225 L 56,92.6 L 56.5,92.975 L 57,93.35 L 57.5,93.725 L 58,94.1 L 58.5,94.475 L 59,94.85 L 59.5,95.225 L 60,95.6 L 60.5,95.975 L 61,96.35 L 61.5,96.725 L 62,97.1 L 62.5,97.475 L 63,97.85 L 63.5,98.225 L 64,98.6 L 64.5,98.975 L 65,99.35 L 65.5,99.725 L 66,100.1 L 66.5,100.475 L 67,100.85 L 67.5,101.225 L 68,101.6 L 68.5,101.975 L 69,102.35 L 69.5,102.725 L 70,103.1 L 70.5,103.475 L 71,103.85 L 71.5,104.225 L 72,104.6 L 72.5,104.975 L 73,105.35 L 73.5,105.725 L 74,106.1 L 74.5,106.475 L 75,106.85 L 75.5,107.225 L 76,107.6 L 76.5,107.975 L 77,108.35 L 77.5,108.725 L 78,109.1 L 78.5,109.475 L 79,109.85 L 79.5,110.225 L 80,110.6 L 80.5,110.975 L 81,111.35 L 81.5,111.725 L 82,112.1 L 82.5,112.475 L 83,112.85 L 83.5,113.225 L 84,113.6 L 84.5,113.975 L 85,114.35 L 85.5,114.725 L 86,115.1 L 86.5,115.475 L 87,115.85 L 87.5,116.225 L 88,116.6 L 88.5,116.975 L 89,117.35 L 89.5,117.725 L 90,118.1 L 90.5,118.475 L 91,118.85 L 91.5,119.225 L 92,119.6 L 92.5,119.975 L 93,120.35 L 93.5,120.725 L 94,121.1 L 94.5,121.475 L 95,121.85 L 95.5,122.225 L 96,122.6 L 96.5,122.975 L 97,123.35 L 97.5,123.725 L 98,124.1 L 98.5,124.475 L 99,124.85 L 99.5,125.225 L 100,125.6 L 100.5,125.975 L 101,126.35 L 101.5,126.725 L 102,127.1 L 102.5,127.475 L 103,127.85 L 103.5,128.225 L 104,128.6 L 104.5,128.975 L 105,129.35 L 105.5,129.725 L 106,130.1 L 106.5,130.475 L 107,130.85 L 107.5,131.225 L 108,131.6 L 108.5,131.975 L 109,132.35 L 109.5,132.725 L 110,133.1 L 110.5,133.475 L 111,133.85 L 111.5,134.225 L 112,134.6 L 112.5,134.975 L 113,135.35 L 113.5,135.725 L 114,136.1 L 114.5,136.475 L 115,136.85 L 115.5,137.225 L 116,137.6 L 116.5,137.975 L 117,138.35 L 117.5,138.725 L 118,139.1 L 118.5,139.475 L 119,139.85 L 119.5,140.225 L 120,140.6 L 120.5,140.975 L 121,141.35 L 121.5,141.725 L 122,142.1 L 122.5,142.475 L 123,142.85 L 123.5,143.225 L 124,143.6 L 124.5,143.975 L 125,144.35 L 125.5,144.725 L 126,145.1 L 126.5,145.475 L 127,145.85 L 127.5,146.225 L 128,146.6 L 128.5,146.975 L 129,147.35 L 129.5,147.725 L 130,148.1 L 130.5,148.475 L 131,148.85 L 131.5,149.225 L 132,149.6 L 132.5,149.975 L 133,150.35 L 133.5,150.725 L 134,151.1 L 134.5,151.475 L 135,151.85 L 135.5,152.225 L 136,152.6 L 136.5,152.975 L 137,153.35 L 137.5,153.725 L 138,154.1 L 138.5,154.475 L 139,154.85 L 139.5,155.225 L 140,155.6 L 140.5,155.975 L 141,156.35 L 141.5,156.725 L 142,157.1 L 142.5,157.475 L 143,157.85 L 143.5,158.225 L 144,158.6 L 144.5,158.975 L 145,159.35 L 145.5,159.725 L 146,160.1 L 146.5,160.475 L 147,160.85 L 147.5,161.225 L 148,161.6 L 148.5,161.975 L 149,162.35 L 149.5,162.725 L 150,163.1 L 150.5,163.475 L 151,163.85 L 151.5,164.225 L 152,164.6 L 152.5,164.975 L 153,165.35 L 153.5,165.725 L 154,166.1 L 154.5,166.475 L 155,166.85 L 155.5,167.225 L 156,167.6 L 156.5,167.975 L 157,168.35 L 157.5,168.725 L 158,169.1 L 158.5,169.475 L 159,169.85 L 159.5,170.225 L 160,170.6 L 160.5,170.975 L 161,171.35 L 161.5,171.725 L 162,172.1 L 162.5,172.475 L 163,172.85 L 163.5,173.225 L 164,173.6 L 164.5,173.975 L 165,174.35 L 165.5,174.725 L 166,175.1 L 166.5,175.475 L 167,175.85 L 167.5,176.225 L 168,176.6 L 168.5,176.975 L 169,177.35 L 169.5,177.725 L 170,178.1 L 170.5,178.475 L 171,178.85 L 171.5,179.225 L 172,179.6 L 172.5,179.975 L 173,180.35 L 173.5,180.725 L 174,181.1 L 174.5,181.475 L 175,181.85 L 175.5,182.225 L 176,182.6 L 176.5,182.975 L 177,183.35 L 177.5,183.725 L 178,184.1 L 178.5,184.475 L 179,184.85 L 179.5,185.225 L 180,185.6 L 180.5,185.975 L 181,186.35 L 181.5,186.725 L 182,187.1 L 182.5,187.475 L 183,187.85 L 183.5,188.225 L 184,188.6 L 184.5,188.975 L 185,189.35 L 185.5,189.725 L 186,190.1 L 186.5,190.475 L 187,190.85 L 187.5,191.225 L 188,191.6 L 188.5,191.975 L 189,192.35 L 189.5,192.725 L 190,193.1 L 190.5,193.475 L 191,193.85 L 191.5,194.225 L 192,194.6 L 192.5,194.975 L 193,195.35 L 193.5,195.725 L 194,196.1 L 194.5,196.475 L 195,196.85 L 195.5,197.225 L 196,197.6 L 196.5,197.975 L 197,198.35 L 197.5,198.725 L 198,199.1 L 198.5,199.475 L 199,199.85 L 199.5,200.225 L 200,200.6 L 200.5,200.975 L 201,201.35 L 201.5,201.725 L 202,202.1 L 202.5,202.475 L 203,202.85 L 203.5,203.225 L 204,203.6 L 204.5,203.975 L 205,204.35 L 205.5,204.725 L 206,205.1 L 206.5,205.475 L 207,205.85 L 207.5,206.225 L 208,206.6 L 208.5,206.975 L 209,207.35 L 209.5,207.725 L 210,208.1 L 210.5,208.475 L 211,208.85 L 211.5,209.225 L 212,209.6 L 212.5,209.975 L 213,210.35 L 213.5,210.725 L 214,211.1 L 214.5,211.475 L 215,211.85 L 215.5,212.225 L 216,212.6 L 216.5,212.975 L 217,213.35 L 217.5,213.725 L 218,214.1 L 218.5,214.475 L 219,214.85 L 219.5,215.225 L 220,215.6 L 220.5,215.975 L 221,216.35 L 221.5,216.725 L 222,217.1 L 222.5,217.475 L 223,217.85 L 223.5,218.225 L 224,218.6 L 224.5,218.975 L 225,219.35 L 225.5,219.725 L 226,220.1 L 226.5,220.475 L 227,220.85 L 227.5,221.225 L 228,221.6 L 228.5,221.975 L 229,222.35 L 229.5,222.725 L 230,223.1 L 230.5,223.475 L 231,223.85 L 231.5,224.225 L 232,224.6 L 232.5,224.975 L 233,225.35 L 233.5,225.725 L 234,226.1 L 234.5,226.475 L 235,226.85 L 235.5,227.225 L 236,227.6 L 236.5,227.975 L 237,228.35 L 237.5,228.725 L 238,229.1 L 238.5,229.475 L 239,229.85 L 239.5,230.225 L 240,230.6 L 240.5,230.975 L 241,231.35 L 241.5,231.725 L 242,232.1 L 242.5,232.475 L 243,232.85 L 243.5,233.225 L 244,233.6 L 244.5,233.975 L 245,234.35 L 245.5,234.725 L 246,235.1 L 246.5,235.475 L 247,235.85 L 247.5,236.225 L 248,236.6 L 248.5,236.975 L 249,237.35 L 249.5,237.725 L 250,238.1 L 250.5,238.475 L 251,238.85 L 251.5,239.225 L 252,239.6 L 252.5,239.975 L 253,240.35 L 253.5,240.725 L 254,241.1 L 254.5,241.475 L 255,241.85 L 255.5,242.225 L 256,242.6 L 256.5,242.975 L 257,243.35 L 257.5,243.725 L 258,244.1 L 258.5,244.475 L 259,244.85 L 259.5,245.225 L 260,245.6 L 260.5,245.975 L 261,246.35 L 261.5,246.725 L 262,247.1 L 262.5,247.475 L 263,247.85 L 263.5,248.225 L 264,248.6 L 264.5,248.975 L 265,249.35 L 265.5,249.725 L 266,250.1 L 266.5,250.475 L 267,250.85 L 267.5,251.225 L 268,251.6 L 268.5,251.975 L 269,252.35 L 269.5,252.725 L 270,253.1 L 270.5,253.475 L 271,253.85 L 271.5,254.225 L 272,254.6 L 272.5,254.975 L 273,255.35 L 273.5,255.725 L 274,256.1 L 274.5,256.475 L 275,256.85 L 275.5,257.225 L 276,257.6 L 276.5,257.975 L 277,258.35 L 277.5,258.725 L 278,259.1 L 278.5,259.475 L 279,259.85 L 279.5,260.225 L 280,260.6 L 280.5,260.975 L 281,261.35 L 281.5,261.725 L 282,262.1 L 282.5,262.475 L 283,262.85 L 283.5,263.225 L 284,263.6 L 284.5,263.975 L 285,264.35 L 285.5,264.725 L 286,265.1 L 286.5,265.475 L 287,265.85 L 287.5,266.225 L 288,266.6 L 288.5,266.975 L 289,267.35 L 289.5,267.725 L 290,268.1 L 290.5,268.475 L 291,268.85 L 291.5,269.225 L 292,269.6 L 292.5,269.975 L 293,270.35 L 293.5,270.725 L 294,271.1 L 294.5,271.475 L 295,271.85 L 295.5,272.225 L 296,272.6 L 296.5,272.975 L 297,273.35 L 297.5,273.725 L 298,274.1 L 298.5,274.475 L 299,274.85 L 299.5,275.225 L 300,275.6 L 300.5,275.975 L 301,276.35 L 301.5,276.725 L 302,277.1 L 302.5,277.475 L 303,277.85 L 303.5,278.225 L 304,278.6 L 304.5,278.975 L 305,279.35 L 305.5,279.725 L 306,280.1 L 306.5,280.475 L 307,280.85 L 307.5,281.225 L 308,281.6 L 308.5,281.975 L 309,282.35 L 309.5,282.725 L 310,283.1 L 310.5,283.475 L 311,283.85 L 311.5,284.225 L 312,284.6 L 312.5,284.975 L 313,285.35 L 313.5,285.725 L 314,286.1 L 314.5,286.475 L 315,286.85 L 315.5,287.225 L 316,287.6 L 316.5,287.975 L 317,288.35 L 317.5,288.725 L 318,289.1 L 318.5,289.475 L 319,289.85 L 319.5,290.225 L 320,290.6 L 320.5,290.975 L 321,291.35 L 321.5,291.725 L 322,292.1 L 322.5,292.475 L 323,292.85 L 323.5,293.225 L 324,293.6 L 324.5,293.975 L 325,294.35 L 325.5,294.725 L 326,295.1 L 326.5,295.475 L 327,295.85 L 327.5,296.225 L 328,296.6 L 328.5,296.975 L 329,297.35 L 329.5,297.725" style="stroke-width: 3px" stroke-width="3" clip-path="url(#clip-1)"/></svg>